<svg width="19" height="17" viewBox="0 0 19 17" fill="none" xmlns="http://www.w3.org/2000/svg">
<path d="M18.9172 7.30103L10.2458 0.264961C10.035 0.0927652 9.77188 -0.0012207 9.50045 -0.0012207C9.22903 -0.0012207 8.96586 0.0927652 8.75513 0.264961L0.083742 7.30103C0.0608345 7.31945 0.041789 7.34226 0.0277112 7.36814C0.0136334 7.39402 0.00480379 7.42246 0.00173496 7.45181C-0.00133387 7.48115 0.00141925 7.51082 0.00983447 7.53909C0.0182497 7.56735 0.0321594 7.59365 0.0507559 7.61646L0.519159 8.19752C0.537773 8.22065 0.560734 8.23985 0.586729 8.25404C0.612723 8.26823 0.641242 8.27712 0.670653 8.2802C0.700065 8.28329 0.729791 8.2805 0.758133 8.27201C0.786475 8.26352 0.812876 8.24949 0.835825 8.23072L2.1114 7.19512V16.4681C2.1114 16.609 2.167 16.7441 2.26598 16.8437C2.36496 16.9434 2.4992 16.9993 2.63918 16.9993H16.3614C16.5014 16.9993 16.6356 16.9434 16.7346 16.8437C16.8336 16.7441 16.8892 16.609 16.8892 16.4681V7.19844L18.169 8.23736C18.2154 8.27519 18.2748 8.29293 18.3342 8.28671C18.3936 8.28048 18.4481 8.25079 18.4857 8.20416L18.9538 7.6231C18.9894 7.57478 19.0055 7.5146 18.9987 7.45479C18.9919 7.39497 18.9628 7.34 18.9172 7.30103ZM7.91695 15.9368V10.6243H11.0836V15.9368H7.91695ZM15.8336 15.9368H12.1392V10.0931C12.1392 9.95219 12.0836 9.81706 11.9846 9.71743C11.8856 9.61781 11.7514 9.56184 11.6114 9.56184H7.38918C7.2492 9.56184 7.11496 9.61781 7.01598 9.71743C6.917 9.81706 6.8614 9.95219 6.8614 10.0931V15.9368H3.16695V6.33848L9.35878 1.31152C9.39786 1.27932 9.44681 1.26172 9.49732 1.26172C9.54783 1.26172 9.59678 1.27932 9.63586 1.31152L15.8336 6.34113V15.9368Z" fill="black"/>
</svg>
