<svg width="20" height="16" viewBox="0 0 20 16" fill="none" xmlns="http://www.w3.org/2000/svg">
<path d="M19.13 4.8122L10.8488 2.1347C10.2922 1.95502 9.70813 1.95502 9.15156 2.1347L0.870313 4.8122C0.341875 4.98314 0 5.44939 0 6.00002C0 6.55064 0.341875 7.01689 0.87 7.18783L1.79844 7.48783C1.69531 7.68095 1.61906 7.88877 1.56938 8.10658C1.23531 8.26845 1 8.60377 1 9.00002C1 9.39783 1.23656 9.73502 1.57281 9.89595L1.00875 13.3916C0.958437 13.7038 1.13094 14 1.36312 14H2.63656C2.86875 14 3.04156 13.7038 2.99094 13.3916L2.42719 9.89595C2.76344 9.73502 3 9.39783 3 9.00002C3 8.66877 2.82844 8.38939 2.58031 8.2072C2.62687 8.06158 2.69906 7.93033 2.78562 7.80689L4.45656 8.3472L4 12C4 13.1047 6.68625 14 10 14C13.3138 14 16 13.1047 16 12L15.5434 8.3472L19.13 7.18752C19.6581 7.01689 20 6.55064 20 6.00002C20 5.44939 19.6581 4.98314 19.13 4.8122ZM14.9838 11.9331C14.6475 12.2872 12.9388 13 10 13C7.06125 13 5.3525 12.2872 5.01625 11.9331L5.42531 8.66033L9.15156 9.86502C9.23281 9.89127 9.95531 10.1535 10.8488 9.86502L14.575 8.66033L14.9838 11.9331ZM18.8213 6.23689L10.54 8.91439C10.1866 9.02877 9.81344 9.02877 9.46 8.91439L3.97031 7.13939L10.0919 5.99127C10.3634 5.94064 10.5422 5.67939 10.4913 5.40783C10.4406 5.13595 10.1737 4.95814 9.90812 5.00877L3.54 6.20252C3.1525 6.27502 2.80531 6.44158 2.50625 6.66595L1.17844 6.23658C0.933125 6.15689 0.945312 5.83845 1.17844 5.76314L9.45969 3.08564C9.93156 2.93314 10.3297 3.01783 10.5397 3.08564L18.8209 5.76314C19.0519 5.83783 19.0681 6.15689 18.8213 6.23689Z" fill="black"/>
</svg>
